<svg id="Glyph" xmlns="http://www.w3.org/2000/svg" viewBox="0 0 64 64"><defs><style>.cls-1{fill:#231f20;}</style></defs><title>1</title><path class="cls-1" d="M36.87,42.489l-1.58,1.59a.73237.73237,0,0,1-.49.21l-3.54.05a.81972.81972,0,0,0-.66.37l-1.4,2.17a.8336.8336,0,0,0,.11,1.05.84459.84459,0,0,0,1.01.13l1.25-.71a1.73036,1.73036,0,0,1,2.36,2.36l-.72,1.25a.84859.84859,0,0,0,.14,1.01.83359.83359,0,0,0,1.05.11l2.17-1.4a.79892.79892,0,0,0,.36-.66l.06-3.54a.73237.73237,0,0,1,.21-.49l1.58-1.59a4.77451,4.77451,0,0,0,1.37-2.69l.1-.65-.68.07A4.8834,4.8834,0,0,0,36.87,42.489Z"/><path class="cls-1" d="M55.76,24.009a108.18663,108.18663,0,0,1-11.42,14.21c-.57.01-.88.01-1.45.02a.97815.97815,0,0,1-.29-.69,1.01158,1.01158,0,0,1,.28-.69,103.38581,103.38581,0,0,0,11.97-15.14v-.01c.35-.53,1.15-1.87,1.24-2.03C59,14.649,61.68,8.239,58.72,5.279s-9.37-.28-14.4,2.63c-.68-.36-1.38-.68-2.09-.97a26.8904,26.8904,0,0,0-11.82-1.96A27.16284,27.16284,0,0,0,4.98,30.409a26.89045,26.89045,0,0,0,1.96,11.82c.29.71.61,1.41.97,2.09C5,49.349,2.32,55.759,5.28,58.719a4.85477,4.85477,0,0,0,3.57,1.29c3.21,0,7.34-1.9,10.83-3.92h.01c.16-.09,1.49-.9,2.02-1.24,1.56-.98,3.19-2.1,4.85-3.33a.99959.99959,0,0,1,1.29.09,1.00632,1.00632,0,0,1-.11,1.51c-1.07.77-2.78,2-3.74,2.64-.71.47-1.42.92-2.11,1.35a26.82772,26.82772,0,0,0,11.87,1.9,27.1671,27.1671,0,0,0,25.26-25.34,26.72122,26.72122,0,0,0-1.92-11.78C56.68,22.589,56.23,23.289,55.76,24.009Zm.12-15.92c.23.33.39,2.64-2.21,7.7a27.06522,27.06522,0,0,0-5.45-5.45C53.28,7.729,55.57,7.889,55.88,8.089ZM8.12,55.909c-.23-.33-.39-2.63,2.22-7.69a27.48713,27.48713,0,0,0,5.44,5.44C10.72,56.269,8.42,56.109,8.12,55.909Zm33.52-14.63-.1.65a6.31906,6.31906,0,0,1-1.76,3.47l-1.39,1.38-.05,3.26a2.199,2.199,0,0,1-1.01,1.82l-2.16,1.4a2.27782,2.27782,0,0,1-1.22.36,2.24942,2.24942,0,0,1-1.96-3.35l.72-1.25995a.32406.32406,0,0,0-.44-.44l-1.26.72a2.24631,2.24631,0,0,1-2.99-3.18l1.4-2.16a2.19886,2.19886,0,0,1,1.82-1.01l3.26-.05,1.38-1.39a6.19123,6.19123,0,0,1,3.47-1.76l.65-.1A1.429,1.429,0,0,1,41.64,41.279Z"/></svg>